<?xml version="1.0" encoding="UTF-8"?>
<svg id="Layer_1" data-name="Layer 1" xmlns="http://www.w3.org/2000/svg" viewBox="0 0 362.8 495.79">
  <defs>
    <style>
      .cls-1 {
        fill: #fff;
      }

      .cls-2 {
        fill: #e44d26;
      }
    </style>
  </defs>
  <path class="cls-2" d="M0,454.79V84.39h362.8v370.2l-181.7,41.2"/>
  <g>
    <path d="M33.58,0h21.38c22.18,0,33.27,10.93,33.27,27.44v.16c0,16.51-11.33,28.24-33.9,28.24h-20.74V0ZM55.35,39.57c8.54,0,14.04-3.51,14.04-11.57v-.16c0-8.06-5.5-11.57-14.04-11.57h-3.11v23.29h3.11Z"/>
    <path d="M93.33,0h47.62v15.32h-29.28v5.66h27.28v13.48h-27.28v6.06h29.68v15.32h-48.02V0Z"/>
    <path d="M146.38,0h18.67v39.89h26.25v15.95h-44.91V0Z"/>
    <path d="M195.36,0h25.13c14.84,0,24.97,6.62,24.97,19.86v.16c0,13.48-10.29,20.66-25.37,20.66h-6.06v15.16h-18.67V0ZM219.05,27.36c4.79,0,7.98-2.15,7.98-6.14v-.16c0-4.07-2.95-6.14-7.9-6.14h-5.11v12.44h5.03Z"/>
    <path d="M249.45,0h18.67v19.7h17.07V0h18.67v55.84h-18.67v-20.02h-17.07v20.02h-18.67V0Z"/>
    <path d="M310.4,0h18.67v55.84h-18.67V0Z"/>
  </g>
  <g>
    <path class="cls-1" d="M275.95,162.83c19.12,3.5,38.91,18.88,43.42,38.33.85,3.66.88,7.57,1.85,11.2v10.65c-1.19,6.11-2.36,11.7-5.43,17.21-12.18,21.87-38.78,29.38-61.13,18.48-.62,1.42-146.44,0-146.44,0-24.58,12.27-54.38.95-63.91-24.76l-2.65-11.46c.15-2.98-.21-6.08,0-9.05,1.63-23.26,14.7-39.62,36.22-48.19l9.57-2.41h188.5ZM276.32,210.92c-6.28-6.52-20.14-1.82-21.14,7.56-1.78,16.79,16.8,24.33,29.03,14.13,17.21-14.35,4.61-39.23-17.58-37.82-35.87,2.28-35.84,45.85-6.4,56.46,32.42,11.68,57.72-22.37,45.1-52.57-5.13-12.27-21.35-22.25-34.42-23.1-26.48-1.73-55.85.61-82.54.58-30.99-.03-65.21-2.58-95.9-.58-24.62,1.6-42.73,24.64-37.25,49.03,9.82,43.75,76.74,34.39,68.19-8.56-4.78-24.02-44.4-30.54-51.15-4.77-4.59,17.53,15.19,33.51,30.35,22.37,7.57-5.56,8.56-19.21-.42-24.08-4.87-2.64-14.87-2.48-15.81,4.37,1.81-.41,2.53-2.04,4.41-2.78,14.94-5.87,18.74,16.86,5.31,19.16-18.77,3.21-21.37-22.16-6.42-26.66,24.55-7.39,34.5,24.74,13.75,36.12-26.42,14.49-52.27-22.61-29.55-43.4,19.24-17.61,183.71-12.19,202.47-7.08,28.65,7.81,29.71,45.51,1.09,52.49-19.53,4.77-37.35-15.25-24.61-32.07,11.62-15.34,38.21-4.27,29.08,14.7-3.76,7.82-17.17,8.47-21.51.54-5.85-10.68,8.19-20.3,15.82-11.02,1.96,0,.79-2.33.1-3.05Z"/>
    <path class="cls-1" d="M106.27,267.53c.41-.45,2.13-1.61,2.71-1.82,48.16-.81,96.74-.84,144.9.01,6.73,2.68,5.84,13.52-1.61,14.42H111.66c-6.43.28-9.48-8.1-5.38-12.61Z"/>
    <path class="cls-1" d="M127.01,395.3c.14-13.45.28-26.89.4-40.32.16-17.72-1.4-38.12-.04-55.43.22-2.76.8-6.36,3.37-7.81,4.74-2.68,7.98,1.65,8.39,6.21.44,4.94.06,11.45,0,16.55-.34,26.91-.7,53.85-1.04,80.8h8.49c.12-25.88-.01-51.79.54-77.6.14-6.59-.79-15.1-.03-21.34.36-2.96,2.09-4.92,5.07-5.33,3.64-.5,5.76,2.66,6.13,5.88,2.15,18.79-1.63,41.53.02,60.74-.22,12.54-.35,25.09-.46,37.65h8.74l.04-100.17c.72-2.17,2.43-4.05,4.83-4.24,2.74-.22,5.35,1.96,5.76,4.65v99.76s8.54,0,8.54,0l.04-100.17c.91-2.76,2.81-4.23,5.78-4.09,2.38.11,4.19,1.83,4.68,4.09l.04,100.16h8.8c.06-15.24.14-30.48.06-45.69-.08-16.28-2-35.6-.58-51.66.28-3.19,1.95-6.96,5.61-6.96,7.61,0,5.36,10.57,5.57,15.52,1.24,29.34,1.56,59.02,1.53,88.79h7.65c-.33-28.73-.72-57.45-1.2-86.12-.09-5.21-1.74-17.96,5.7-18.21,4.01-.14,5.68,3.5,6.03,7.01,1.49,14.89-.16,34.1-.02,49.55.15,15.92.32,31.84.51,47.78h13.35v-108.52l-.8-.8H114.34l-.8.8v108.52h13.47Z"/>
  </g>
</svg>